<?xml version="1.0" encoding="utf-8"?>
<!-- Generator: Adobe Illustrator 19.0.1, SVG Export Plug-In . SVG Version: 6.00 Build 0)  -->
<svg version="1.1" id="Слой_1" xmlns="http://www.w3.org/2000/svg" xmlns:xlink="http://www.w3.org/1999/xlink" x="0px" y="0px" width="19px" height="19px"
	 viewBox="-443 243.7 72.9 75.3" style="enable-background:new -443 243.7 72.9 75.3;" xml:space="preserve">
<style type="text/css">
	.st0{fill:none;stroke:#282828;stroke-width:3;stroke-miterlimit:10;}
	.st1{fill:#282828;}
</style>
<g id="Слой_1_1_">
	<circle class="st0" cx="-406.6" cy="281.4" r="34.3"/>
	<rect x="-436.3" y="280.4" class="st1" width="7.5" height="3.8"/>
	<rect x="-384.5" y="280.4" class="st1" width="7.5" height="3.8"/>
	<rect x="-408.5" y="251.7" class="st1" width="3.8" height="7.5"/>
	
		<rect x="-391.8" y="262.4" transform="matrix(-0.7148 0.6993 -0.6993 -0.7148 -480.6216 724.547)" class="st1" width="7.5" height="3.8"/>
	
		<rect x="-429.5" y="262.4" transform="matrix(0.7148 0.6993 -0.6993 0.7148 63.399 373.0871)" class="st1" width="7.5" height="3.8"/>
	
		<rect x="-421.5" y="256.1" transform="matrix(0.5228 0.8525 -0.8525 0.5228 20.6268 479.2361)" class="st1" width="7.5" height="3.8"/>
	
		<rect x="-400.6" y="256.1" transform="matrix(-0.5228 0.8525 -0.8525 -0.5228 -384.3781 731.2568)" class="st1" width="7.5" height="3.8"/>
	
		<rect x="-434.6" y="270.4" transform="matrix(0.9421 0.3353 -0.3353 0.9421 66.3508 160.2137)" class="st1" width="7.5" height="3.8"/>
	
		<rect x="-386.4" y="270.4" transform="matrix(-0.9421 0.3353 -0.3353 -0.9421 -651.8276 657.1526)" class="st1" width="7.5" height="3.8"/>
	<circle class="st1" cx="-406.5" cy="283.3" r="4.3"/>
	<g>
		<polygon points="-408.3,280.6 -393.2,268.7 -404.7,284.1 		"/>
	</g>
</g>
<g id="Слой_2">
</g>
</svg>
