<?xml version="1.0" standalone="no"?>
<!DOCTYPE svg PUBLIC "-//W3C//DTD SVG 20010904//EN"
 "http://www.w3.org/TR/2001/REC-SVG-20010904/DTD/svg10.dtd">
<svg version="1.0" xmlns="http://www.w3.org/2000/svg"
 width="1801.000000pt" height="1801.000000pt" viewBox="0 0 1801.000000 1801.000000"
 preserveAspectRatio="xMidYMid meet">
<metadata>
Created by potrace 1.11, written by Peter Selinger 2001-2013
</metadata>
<g transform="translate(0.000000,1801.000000) scale(0.100000,-0.100000)"
fill="#000000" stroke="none">
<path d="M6438 16145 c-1 -1 -67 -6 -146 -9 -78 -4 -161 -8 -185 -11 -23 -2
-76 -6 -117 -10 -41 -3 -97 -8 -125 -11 -27 -2 -71 -7 -97 -9 -102 -10 -144
-15 -173 -19 -16 -3 -50 -7 -75 -11 -25 -3 -56 -8 -70 -10 -14 -2 -45 -7 -70
-10 -40 -5 -183 -29 -235 -39 -11 -2 -40 -7 -65 -12 -25 -4 -47 -8 -50 -9 -33
-7 -90 -18 -110 -21 -14 -3 -34 -8 -45 -11 -11 -3 -29 -7 -40 -9 -27 -4 -51
-9 -105 -24 -25 -7 -53 -14 -63 -16 -10 -2 -27 -6 -37 -9 -10 -3 -27 -8 -38
-10 -66 -12 -285 -76 -447 -130 -656 -218 -1171 -482 -1705 -874 -41 -30 -89
-66 -106 -80 -17 -14 -51 -42 -75 -61 -269 -215 -610 -564 -839 -860 -19 -25
-41 -52 -48 -60 -80 -96 -341 -497 -439 -674 -47 -86 -223 -438 -257 -516
-129 -295 -326 -860 -371 -1063 -2 -12 -15 -65 -29 -117 -22 -90 -79 -340 -91
-405 -7 -36 -34 -189 -40 -225 -3 -14 -7 -36 -9 -50 -3 -14 -8 -43 -11 -65 -3
-22 -12 -83 -20 -135 -18 -122 -22 -152 -30 -225 -4 -33 -8 -71 -11 -85 -2
-14 -6 -61 -9 -105 -3 -44 -8 -89 -10 -100 -2 -11 -7 -63 -10 -115 -4 -52 -8
-111 -10 -130 -27 -271 -27 -1321 0 -1583 2 -23 7 -82 10 -132 4 -49 8 -103
10 -120 2 -16 7 -61 10 -100 3 -38 8 -81 10 -95 2 -14 7 -50 10 -81 3 -31 7
-65 9 -75 2 -11 7 -46 11 -79 4 -32 8 -66 10 -75 1 -8 6 -35 9 -60 7 -52 8
-55 36 -215 12 -66 24 -133 27 -150 2 -16 14 -70 25 -120 11 -49 22 -100 24
-112 10 -51 56 -242 69 -288 8 -27 28 -99 46 -160 156 -557 398 -1121 673
-1573 45 -73 86 -141 91 -150 67 -114 399 -563 444 -602 3 -3 40 -43 81 -90
352 -400 879 -831 1328 -1086 20 -11 71 -40 112 -64 73 -42 423 -220 433 -220
3 0 38 -15 79 -34 101 -47 347 -145 503 -199 521 -182 1145 -323 1745 -392 30
-4 66 -8 80 -10 14 -2 57 -7 95 -10 39 -3 86 -7 105 -10 19 -2 79 -7 134 -10
54 -4 106 -8 116 -10 9 -2 89 -6 176 -10 88 -4 186 -8 219 -10 77 -3 77 -3 70
-15 -4 -7 640 -10 1923 -10 1535 0 1931 3 1934 13 6 21 2 3617 -5 3623 -3 3
-803 6 -1777 6 -1284 1 -1774 -2 -1779 -10 -12 -19 -304 -3 -506 28 -33 5 -78
12 -100 15 -82 13 -304 70 -370 96 -11 4 -54 20 -95 35 -175 63 -437 209 -580
323 -279 223 -503 506 -671 851 -149 308 -283 749 -334 1105 -3 23 -7 51 -9
62 -3 12 -7 46 -10 75 -4 29 -8 64 -10 78 -12 71 -28 255 -42 480 -4 77 -4
681 0 760 2 36 7 112 10 170 4 58 9 121 11 140 2 19 7 64 10 100 4 36 8 76 10
90 2 14 7 50 11 80 4 30 8 64 10 75 2 11 6 38 9 60 3 22 7 49 9 60 5 27 35
185 40 210 3 16 36 154 51 215 11 45 67 225 88 285 166 470 405 834 733 1115
212 182 482 327 779 419 97 30 236 65 303 76 75 12 90 15 152 24 138 22 260
23 2133 23 l1927 1 1 21 c1 27 1 3568 0 3579 -1 7 -4235 10 -4243 2z"/>
<path d="M11139 16143 c-1 -11 -1 -3615 0 -3631 1 -10 213 -12 1043 -10 l1041
3 1 1822 1 1823 -1042 0 c-574 0 -1043 -3 -1044 -7z"/>
<path d="M14128 15825 c-57 -21 -87 -44 -114 -90 -65 -111 -18 -251 101 -301
37 -15 175 -17 1873 -16 1432 0 1843 3 1878 12 27 8 59 28 83 51 97 98 73 260
-49 329 l-45 25 -1845 1 c-1488 1 -1852 -1 -1882 -11z"/>
<path d="M14137 14576 c-129 -38 -193 -201 -125 -317 29 -49 85 -93 133 -105
16 -4 450 -7 965 -7 1032 1 972 -3 1037 65 115 119 71 310 -83 363 -49 16
-1870 18 -1927 1z"/>
<path d="M14115 13360 c-50 -22 -97 -73 -118 -125 -20 -53 -13 -136 15 -186
25 -45 89 -93 137 -104 18 -4 693 -7 1500 -7 1654 0 1515 -7 1591 79 36 42 51
84 55 153 3 70 -78 176 -150 197 -30 9 -417 12 -1515 11 -1384 -1 -1477 -2
-1515 -18z"/>
<path d="M11142 5492 c-3 -8 -5 -828 -6 -1823 l-1 -1809 1044 2 1044 3 1 1817
c1 1610 -1 1818 -14 1819 -8 0 -476 1 -1039 2 -847 2 -1024 0 -1029 -11z"/>
<path d="M14147 5059 c-100 -27 -161 -109 -161 -215 1 -105 69 -190 169 -211
22 -5 699 -9 1505 -8 1405 1 1467 2 1503 19 165 80 176 301 20 393 l-48 28
-1482 0 c-816 0 -1493 -3 -1506 -6z"/>
<path d="M14114 3881 c-171 -78 -171 -324 0 -402 39 -18 87 -19 986 -19 899 0
947 1 985 19 148 68 172 280 42 374 -66 48 -34 47 -1030 47 -896 -1 -944 -1
-983 -19z"/>
<path d="M14115 2658 c-86 -30 -137 -106 -129 -192 5 -66 40 -117 101 -147
l48 -24 1865 0 1865 0 42 22 c61 33 93 80 100 148 10 92 -44 168 -138 195 -48
14 -3714 12 -3754 -2z"/>
</g>
</svg>
